<?xml version="1.0" encoding="UTF-8" standalone="no"?>
<!-- Created with Inkscape (http://www.inkscape.org/) -->

<svg
   version="1.1"
   id="svg18"
   width="666.66669"
   height="666.66669"
   viewBox="0 0 666.66669 666.66669"
   sodipodi:docname="LogoSpendWise.svg"
   inkscape:version="1.2.2 (b0a8486541, 2022-12-01)"
   xml:space="preserve"
   xmlns:inkscape="http://www.inkscape.org/namespaces/inkscape"
   xmlns:sodipodi="http://sodipodi.sourceforge.net/DTD/sodipodi-0.dtd"
   xmlns="http://www.w3.org/2000/svg"
   xmlns:svg="http://www.w3.org/2000/svg"><defs
     id="defs22"><clipPath
       clipPathUnits="userSpaceOnUse"
       id="clipPath36"><path
         d="M 0,500 H 500 V 0 H 0 Z"
         id="path34" /></clipPath><clipPath
       clipPathUnits="userSpaceOnUse"
       id="clipPath64"><path
         d="M 0,500 H 500 V 0 H 0 Z"
         id="path62" /></clipPath><clipPath
       clipPathUnits="userSpaceOnUse"
       id="clipPath160"><path
         d="M 0,500 H 500 V 0 H 0 Z"
         id="path158" /></clipPath><clipPath
       clipPathUnits="userSpaceOnUse"
       id="clipPath210"><path
         d="M 0,500 H 500 V 0 H 0 Z"
         id="path208" /></clipPath><clipPath
       clipPathUnits="userSpaceOnUse"
       id="clipPath766"><g
         id="g770"
         transform="matrix(0.31359204,0,0,0.31359204,-152.45611,-113.57822)"><path
           d="M -192.93376,1277.1435 H 1401.4945 V -317.28478 H -192.93376 Z"
           id="path768"
           style="stroke-width:3.18886" /></g></clipPath><clipPath
       clipPathUnits="userSpaceOnUse"
       id="clipPath772"><g
         id="g776"
         transform="matrix(0.31359204,0,0,0.31359204,-96.756411,-78.782319)"><path
           d="M -192.93376,1277.1435 H 1401.4945 V -317.28478 H -192.93376 Z"
           id="path774"
           style="stroke-width:3.18886" /></g></clipPath><clipPath
       clipPathUnits="userSpaceOnUse"
       id="clipPath778"><g
         id="g782"
         transform="matrix(0.31359204,0,0,0.31359204,-102.73641,-141.56162)"><path
           d="M -192.93376,1277.1435 H 1401.4945 V -317.28478 H -192.93376 Z"
           id="path780"
           style="stroke-width:3.18886" /></g></clipPath><clipPath
       clipPathUnits="userSpaceOnUse"
       id="clipPath784"><g
         id="g788"
         transform="matrix(0.31359204,0,0,0.31359204,-113.16661,-67.14162)"><path
           d="M -192.93376,1277.1435 H 1401.4945 V -317.28478 H -192.93376 Z"
           id="path786"
           style="stroke-width:3.18886" /></g></clipPath><clipPath
       clipPathUnits="userSpaceOnUse"
       id="clipPath790"><g
         id="g794"
         transform="matrix(0.31359204,0,0,0.31359204,-114.71641,-133.09182)"><path
           d="M -192.93376,1277.1435 H 1401.4945 V -317.28478 H -192.93376 Z"
           id="path792"
           style="stroke-width:3.18886" /></g></clipPath><clipPath
       clipPathUnits="userSpaceOnUse"
       id="clipPath796"><g
         id="g800"
         transform="matrix(0.31359204,0,0,0.31359204,-69.48641,-60.752019)"><path
           d="M -192.93376,1277.1435 H 1401.4945 V -317.28478 H -192.93376 Z"
           id="path798"
           style="stroke-width:3.18886" /></g></clipPath><clipPath
       clipPathUnits="userSpaceOnUse"
       id="clipPath802"><g
         id="g806"
         transform="matrix(0.31359204,0,0,0.31359204,-75.466409,-151.57182)"><path
           d="M -192.93376,1277.1435 H 1401.4945 V -317.28478 H -192.93376 Z"
           id="path804"
           style="stroke-width:3.18886" /></g></clipPath><clipPath
       clipPathUnits="userSpaceOnUse"
       id="clipPath808"><g
         id="g812"
         transform="matrix(0.31359204,0,0,0.31359204,-87.446409,-143.10162)"><path
           d="M -192.93376,1277.1435 H 1401.4945 V -317.28478 H -192.93376 Z"
           id="path810"
           style="stroke-width:3.18886" /></g></clipPath><clipPath
       clipPathUnits="userSpaceOnUse"
       id="clipPath814"><g
         id="g818"
         transform="matrix(0.31359204,0,0,0.31359204,-75.466409,-66.73252)"><path
           d="M -192.93376,1277.1435 H 1401.4945 V -317.28478 H -192.93376 Z"
           id="path816"
           style="stroke-width:3.18886" /></g></clipPath><clipPath
       clipPathUnits="userSpaceOnUse"
       id="clipPath820"><g
         id="g824"
         transform="matrix(0.31359204,0,0,0.31359204,-42.22671,-47.22172)"><path
           d="M -192.93376,1277.1435 H 1401.4945 V -317.28478 H -192.93376 Z"
           id="path822"
           style="stroke-width:3.18886" /></g></clipPath><clipPath
       clipPathUnits="userSpaceOnUse"
       id="clipPath826"><g
         id="g830"
         transform="matrix(0.31359204,0,0,0.31359204,-48.206609,-121.56162)"><path
           d="M -192.93376,1277.1435 H 1401.4945 V -317.28478 H -192.93376 Z"
           id="path828"
           style="stroke-width:3.18886" /></g></clipPath><clipPath
       clipPathUnits="userSpaceOnUse"
       id="clipPath832"><g
         id="g836"
         transform="matrix(0.31359204,0,0,0.31359204,-57.126609,-48.391619)"><path
           d="M -192.93376,1277.1435 H 1401.4945 V -317.28478 H -192.93376 Z"
           id="path834"
           style="stroke-width:3.18886" /></g></clipPath><clipPath
       clipPathUnits="userSpaceOnUse"
       id="clipPath838"><g
         id="g842"
         transform="matrix(0.31359204,0,0,0.31359204,-60.186609,-113.09182)"><path
           d="M -192.93376,1277.1435 H 1401.4945 V -317.28478 H -192.93376 Z"
           id="path840"
           style="stroke-width:3.18886" /></g></clipPath><clipPath
       clipPathUnits="userSpaceOnUse"
       id="clipPath443"><path
         d="M 0,500 H 500 V 0 H 0 Z"
         id="path441" /></clipPath><clipPath
       clipPathUnits="userSpaceOnUse"
       id="clipPath519"><path
         d="M 0,500 H 500 V 0 H 0 Z"
         id="path517" /></clipPath><clipPath
       clipPathUnits="userSpaceOnUse"
       id="clipPath595"><path
         d="M 0,500 H 500 V 0 H 0 Z"
         id="path593" /></clipPath><clipPath
       clipPathUnits="userSpaceOnUse"
       id="clipPath803"><g
         id="g807"
         transform="matrix(0.16433402,0,0,-0.16433402,-66.586173,54.085501)"><path
           d="M -528.4525,-313.59665 H 2514.1311 V 2728.9869 H -528.4525 Z"
           id="path805"
           style="stroke-width:6.08517" /></g></clipPath><clipPath
       clipPathUnits="userSpaceOnUse"
       id="clipPath809"><g
         id="g813"
         transform="matrix(0.16433402,0,0,-0.16433402,-86.266274,54.845301)"><path
           d="M -528.4525,-313.59665 H 2514.1311 V 2728.9869 H -528.4525 Z"
           id="path811"
           style="stroke-width:6.08517" /></g></clipPath><clipPath
       clipPathUnits="userSpaceOnUse"
       id="clipPath815"><g
         id="g819"
         transform="matrix(0.16433402,0,0,-0.16433402,-107.32637,54.845301)"><path
           d="M -528.4525,-313.59665 H 2514.1311 V 2728.9869 H -528.4525 Z"
           id="path817"
           style="stroke-width:6.08517" /></g></clipPath></defs><sodipodi:namedview
     id="namedview20"
     pagecolor="#ffffff"
     bordercolor="#000000"
     borderopacity="0.25"
     inkscape:showpageshadow="2"
     inkscape:pageopacity="0.0"
     inkscape:pagecheckerboard="0"
     inkscape:deskcolor="#d1d1d1"
     showgrid="false"
     inkscape:zoom="0.95035149"
     inkscape:cx="306.2025"
     inkscape:cy="386.17291"
     inkscape:window-width="1920"
     inkscape:window-height="1056"
     inkscape:window-x="0"
     inkscape:window-y="0"
     inkscape:window-maximized="1"
     inkscape:current-layer="svg18" /><g
     id="g26"
     inkscape:groupmode="layer"
     inkscape:label="Page 1"
     transform="matrix(1.3333333,0,0,-1.3333333,0,666.66667)" /><g
     id="g569"
     transform="matrix(6.0851671,0,0,-6.0851671,653.09892,333.74282)"
     clip-path="url(#clipPath815)"
     style="fill:#003366;fill-opacity:1"
     inkscape:export-filename="../../public/favicon.png"
     inkscape:export-xdpi="96"
     inkscape:export-ydpi="96"><path
       d="m 0,0 c 0,-28.71 -23.62,-52.33 -52.32,-52.33 -28.71,0 -52.33,23.62 -52.33,52.33 0,28.7 23.62,52.32 52.33,52.32 10.73,0 21.21,-3.3 30.01,-9.46 l -7.37,-10.52 c -15.81,11.03 -38,9.06 -51.5,-5.4 -14.77,-15.83 -13.91,-41.02 1.92,-55.79 l 5.56,5.95 6.93,7.43 c 3.98,-3.61 9.3,-5.74 15.03,-5.54 1.29,0.04 2.55,0.21 3.77,0.48 l 2.14,-10.12 1.69,-7.97 c 7.92,1.68 15.14,5.76 20.67,11.68 7.06,7.56 10.55,17.26 10.54,26.94 z"
       style="fill:#003366;fill-opacity:1;fill-rule:nonzero;stroke:none"
       id="path571" /></g><g
     id="g573"
     transform="matrix(6.0851671,0,0,-6.0851671,524.94469,333.74282)"
     clip-path="url(#clipPath809)"
     style="fill:#00cc99;fill-opacity:1"><path
       d="m 0,0 c 0,-7.68 -2.76,-15.38 -8.37,-21.38 -4.38,-4.7 -10.11,-7.93 -16.4,-9.27 l -2.14,10.12 c 9.54,2.07 16.7,10.57 16.86,20.53 0.02,0.36 0.01,0.72 0,1.09 -0.23,6.81 -3.69,12.8 -8.85,16.56 h -0.01 c -3.72,2.71 -8.33,4.24 -13.24,4.07 l 0.74,-21.36 -9.84,6.4 -8.08,5.25 c -2.4,-3.67 -3.6,-8 -3.45,-12.38 0.2,-5.99 2.91,-11.35 7.07,-15.1 l -6.93,-7.43 c -12.56,11.73 -13.25,31.72 -1.52,44.28 10.72,11.48 28.32,13.03 40.86,4.27 1.19,-0.83 2.33,-1.75 3.41,-2.76 C -3.33,16.77 -0.01,8.4 0,0"
       style="fill:#00cc99;fill-opacity:1;fill-rule:nonzero;stroke:none"
       id="path575" /></g><g
     id="g577"
     transform="matrix(6.0851671,0,0,-6.0851671,405.18799,329.11931)"
     clip-path="url(#clipPath803)"><path
       d="m 0,0 c 0.01,-0.26 0.01,-0.51 0,-0.76 -0.16,-5.39 -4.06,-9.97 -9.23,-11.1 -0.68,-0.15 -1.38,-0.24 -2.1,-0.27 -3.09,-0.11 -5.96,1.02 -8.13,2.93 -2.35,2.07 -3.88,5.05 -4,8.4 -0.08,2.4 0.58,4.78 1.89,6.8 l 9.84,-6.4 -0.4,11.73 C -9.38,11.42 -6.81,10.54 -4.75,9 -1.98,6.93 -0.13,3.68 0,0"
       style="fill:#22211d;fill-opacity:1;fill-rule:nonzero;stroke:none"
       id="path579" /></g></svg>
